<svg xmlns="http://www.w3.org/2000/svg" viewBox="0 0 512 512" role="img" aria-labelledby="title desc">
  <title id="title">M.A HASKE TECH HUB logo</title>
  <desc id="desc">A geometric phone and spark mark for M.A HASKE TECH HUB.</desc>
  <defs>
    <linearGradient id="field" x1="64" y1="48" x2="448" y2="464" gradientUnits="userSpaceOnUse">
      <stop offset="0" stop-color="#173b33"/>
      <stop offset=".58" stop-color="#0f2725"/>
      <stop offset="1" stop-color="#15181c"/>
    </linearGradient>
    <linearGradient id="gold" x1="139" y1="112" x2="386" y2="392" gradientUnits="userSpaceOnUse">
      <stop offset="0" stop-color="#f0bd62"/>
      <stop offset=".44" stop-color="#d98622"/>
      <stop offset="1" stop-color="#b95d35"/>
    </linearGradient>
    <filter id="lift" x="-12%" y="-12%" width="124%" height="124%">
      <feDropShadow dx="0" dy="18" stdDeviation="18" flood-color="#07110f" flood-opacity=".34"/>
    </filter>
  </defs>
  <rect width="512" height="512" rx="104" fill="#fff8e8"/>
  <rect x="32" y="32" width="448" height="448" rx="82" fill="url(#field)"/>
  <path d="M96 363 210 113h92l114 250h-78l-22-52H195l-22 52H96Zm123-112h73l-36-88-37 88Z" fill="url(#gold)" filter="url(#lift)"/>
  <rect x="179" y="86" width="154" height="340" rx="38" fill="none" stroke="#fff8e8" stroke-width="19"/>
  <rect x="220" y="119" width="72" height="10" rx="5" fill="#fff8e8"/>
  <circle cx="256" cy="389" r="10" fill="#fff8e8"/>
  <path d="M386 92 405 134 451 145 411 170 415 217 379 188 335 206 352 162 322 126 370 129Z" fill="#f0bd62"/>
  <path d="M83 92h84M83 124h58M363 406h66M363 436h42" stroke="#fff8e8" stroke-width="16" stroke-linecap="round" opacity=".84"/>
</svg>
