<svg xmlns="http://www.w3.org/2000/svg" viewBox="0 0 512 512" role="img" aria-labelledby="title desc">
  <title id="title">M.A HASKE TECH HUB logo</title>
  <desc id="desc">A geometric M and A monogram for M.A HASKE TECH HUB.</desc>
  <defs>
    <linearGradient id="field" x1="64" y1="48" x2="448" y2="464" gradientUnits="userSpaceOnUse">
      <stop offset="0" stop-color="#173b33"/>
      <stop offset=".58" stop-color="#0f2725"/>
      <stop offset="1" stop-color="#15181c"/>
    </linearGradient>
    <linearGradient id="gold" x1="139" y1="112" x2="386" y2="392" gradientUnits="userSpaceOnUse">
      <stop offset="0" stop-color="#f0bd62"/>
      <stop offset=".44" stop-color="#d98622"/>
      <stop offset="1" stop-color="#b95d35"/>
    </linearGradient>
    <filter id="lift" x="-12%" y="-12%" width="124%" height="124%">
      <feDropShadow dx="0" dy="18" stdDeviation="18" flood-color="#07110f" flood-opacity=".34"/>
    </filter>
  </defs>
  <rect width="512" height="512" rx="104" fill="#fff8e8"/>
  <rect x="32" y="32" width="448" height="448" rx="82" fill="url(#field)"/>
  <g filter="url(#lift)">
    <path d="M102 363V143h62l92 128 92-128h62v220h-67V250l-64 88h-46l-64-88v113h-67Z" fill="#fff8e8"/>
    <path d="M151 363 256 126l105 237h-73l-16-42h-32l22-57-6-16-46 115h-59Z" fill="url(#gold)"/>
    <path d="M216 269h80" stroke="#15181c" stroke-width="16" stroke-linecap="round" opacity=".78"/>
  </g>
  <path d="M86 96h72M86 128h46M354 96h72M394 128h32" stroke="#fff8e8" stroke-width="16" stroke-linecap="round" opacity=".84"/>
  <path d="M94 412h324" stroke="#f0bd62" stroke-width="18" stroke-linecap="round"/>
</svg>
